<?xml version="1.0" encoding="UTF-8"?>
<svg xmlns="http://www.w3.org/2000/svg" xmlns:xlink="http://www.w3.org/1999/xlink" version="1.1" id="Capa_1" x="0px" y="0px" viewBox="0 0 512 512" style="enable-background:new 0 0 512 512;" xml:space="preserve" width="512" height="512">
<g>
	<path style="fill:none;stroke:#000000;stroke-width:15;stroke-linecap:round;stroke-linejoin:round;stroke-miterlimit:10;" d="&#10;&#9;&#9;M468.274,406.607c20,0,36.226,16.225,36.226,36.226v25.442c0,20-16.225,36.226-36.226,36.226H173.167"/>
	<path style="fill:none;stroke:#000000;stroke-width:15;stroke-linecap:round;stroke-linejoin:round;stroke-miterlimit:10;" d="&#10;&#9;&#9;M468.274,308.713c20,0,36.226,16.225,36.226,36.226v25.442c0,20-16.225,36.226-36.226,36.226H324.375"/>
	<path style="fill:none;stroke:#000000;stroke-width:15;stroke-linecap:round;stroke-linejoin:round;stroke-miterlimit:10;" d="&#10;&#9;&#9;M336.102,308.713h132.172c20,0,36.226-16.225,36.226-36.226v-25.442c0-20-16.225-36.226-36.226-36.226"/>
	
		<line style="fill:none;stroke:#000000;stroke-width:15;stroke-linecap:round;stroke-linejoin:round;stroke-miterlimit:10;" x1="396.94" y1="210.821" x2="278.33" y2="210.821"/>
	<path style="fill:none;stroke:#000000;stroke-width:15;stroke-linecap:round;stroke-linejoin:round;stroke-miterlimit:10;" d="&#10;&#9;&#9;M376.48,112.921h91.79c20,0,36.23,16.23,36.23,36.23v25.44c0,20-16.23,36.23-36.23,36.23h-36.33"/>
	
		<circle style="fill:none;stroke:#000000;stroke-width:15;stroke-linecap:round;stroke-linejoin:round;stroke-miterlimit:10;" cx="173.167" cy="338.834" r="165.666"/>
	<path style="fill:none;stroke:#000000;stroke-width:15;stroke-linecap:round;stroke-linejoin:round;stroke-miterlimit:10;" d="&#10;&#9;&#9;M99.11,433.871c20.43,15.95,46.14,25.45,74.06,25.45c66.53,0,120.48-53.95,120.48-120.49c0-66.53-53.95-120.48-120.48-120.48&#10;&#9;&#9;c-66.54,0-120.49,53.95-120.49,120.48c0,26.02,8.25,50.12,22.28,69.82"/>
	<path style="fill:none;stroke:#000000;stroke-width:15;stroke-linecap:round;stroke-linejoin:round;stroke-miterlimit:10;" d="&#10;&#9;&#9;M203.288,278.592h-30.121c-16.637,0-30.121,13.484-30.121,30.121c0,16.626,13.494,30.121,30.121,30.121&#10;&#9;&#9;c16.626,0,30.121,13.494,30.121,30.121c0,16.626-13.494,30.121-30.121,30.121h-30.121"/>
	
		<line style="fill:none;stroke:#000000;stroke-width:15;stroke-linecap:round;stroke-linejoin:round;stroke-miterlimit:10;" x1="173.167" y1="278.592" x2="173.167" y2="256.001"/>
	
		<line style="fill:none;stroke:#000000;stroke-width:15;stroke-linecap:round;stroke-linejoin:round;stroke-miterlimit:10;" x1="173.167" y1="421.667" x2="173.167" y2="399.076"/>
	<path style="fill:none;stroke:#000000;stroke-width:15;stroke-linecap:round;stroke-linejoin:round;stroke-miterlimit:10;" d="&#10;&#9;&#9;M188.227,173.841v-24.689c0-20,16.225-36.226,36.226-36.226h91.789"/>
	<path style="fill:none;stroke:#000000;stroke-width:15;stroke-linecap:round;stroke-linejoin:round;stroke-miterlimit:10;" d="&#10;&#9;&#9;M372.72,158.108c0,8.313-6.737,15.06-15.061,15.06h-22.591c-8.314,0-15.061-6.747-15.061-15.06c0-17.886,0-61.347,0-77.712H305.64&#10;&#9;&#9;c-13.043,0-19.92-15.442-11.195-25.131l36.989-41.115c7.972-8.866,21.878-8.866,29.85,0l36.999,41.115&#10;&#9;&#9;c8.725,9.689,1.847,25.131-11.195,25.131H372.72C372.72,96.771,372.72,140.208,372.72,158.108z"/>
</g>















</svg>
