<svg id="Layer_1" enable-background="new 0 0 512 512" viewBox="0 0 512 512" xmlns="http://www.w3.org/2000/svg"><path d="m484.086 9.652h-456.143c-15.132 0-27.443 12.311-27.443 27.443v329.935c0 15.133 12.311 27.444 27.443 27.444h178.321v49.113h-49.029c-3.859 0-6.988 3.129-6.988 6.988v44.785c0 3.86 3.129 6.988 6.988 6.988h197.559c3.859 0 6.988-3.129 6.988-6.988v-44.785c0-3.86-3.129-6.988-6.988-6.988h-49.029v-49.113h178.321c15.117 0 27.414-12.311 27.414-27.444v-329.935c0-15.132-12.298-27.443-27.414-27.443zm-136.28 478.719h-183.583v-30.808h183.583zm-56.017-44.785h-71.549v-49.113h71.549zm192.297-63.09h-456.143c-7.426 0-13.467-6.041-13.467-13.467v-42.379h70.531c3.859 0 6.988-3.129 6.988-6.988s-3.129-6.988-6.988-6.988h-70.531v-273.579c0-7.425 6.041-13.466 13.467-13.466h456.143c7.41 0 13.439 6.041 13.439 13.466v273.578h-378.088c-3.859 0-6.988 3.129-6.988 6.988s3.129 6.988 6.988 6.988h378.087v42.379c0 7.427-6.029 13.468-13.438 13.468zm-389.376-153.141h-38.56c-3.859 0-6.988 3.129-6.988 6.988v40.033c0 3.86 3.129 6.988 6.988 6.988h38.56c3.859 0 6.988-3.129 6.988-6.988v-40.033c0-3.86-3.128-6.988-6.988-6.988zm-6.988 40.032h-24.585v-26.056h24.585zm72.116-96.559h-38.561c-3.859 0-6.988 3.129-6.988 6.988v96.559c0 3.86 3.129 6.988 6.988 6.988h38.561c3.859 0 6.988-3.129 6.988-6.988v-96.559c0-3.86-3.129-6.988-6.988-6.988zm-6.988 96.559h-24.585v-82.583h24.585zm72.114-52.396h-38.561c-3.859 0-6.988 3.129-6.988 6.988v52.396c0 3.86 3.129 6.988 6.988 6.988h38.561c3.859 0 6.988-3.129 6.988-6.988v-52.396c0-3.859-3.128-6.988-6.988-6.988zm-6.987 52.396h-24.585v-38.419h24.585zm26.565-122.134v129.122c0 3.86 3.129 6.988 6.988 6.988h38.561c3.859 0 6.988-3.129 6.988-6.988v-129.122c0-3.86-3.129-6.988-6.988-6.988h-38.561c-3.859 0-6.988 3.129-6.988 6.988zm13.976 6.989h24.585v115.145h-24.585zm-193.394 21.479 68.862-78.593c1.373-1.567 3.386-2.441 5.456-2.38 2.082.059 4.03 1.046 5.311 2.688l57.607 73.873 58.369-89.555-16.249 2.178c-3.828.511-7.342-2.174-7.854-5.998s2.173-7.341 5.998-7.854l32.931-4.413c3.824-.513 7.342 2.174 7.854 5.998l4.414 32.931c.513 3.825-2.173 7.341-5.998 7.854-.315.042-.628.062-.937.062-3.447 0-6.447-2.55-6.917-6.06l-2.159-16.106-63.089 96.796c-1.233 1.891-3.303 3.07-5.559 3.166-.099.004-.198.007-.296.007-2.148 0-4.183-.989-5.51-2.691l-58.43-74.928-63.292 72.236c-2.543 2.902-6.957 3.195-9.861.651-2.903-2.545-3.195-6.96-.651-9.862zm297.705-102.195c0-3.86 3.129-6.988 6.988-6.988h82.328c3.859 0 6.988 3.129 6.988 6.988 0 3.86-3.129 6.988-6.988 6.988h-82.328c-3.86 0-6.988-3.129-6.988-6.988zm0 31.799c0-3.86 3.129-6.988 6.988-6.988h82.328c3.859 0 6.988 3.129 6.988 6.988 0 3.86-3.129 6.988-6.988 6.988h-82.328c-3.86.001-6.988-3.128-6.988-6.988zm0 31.828c0-3.86 3.129-6.988 6.988-6.988h82.328c3.859 0 6.988 3.129 6.988 6.988s-3.129 6.988-6.988 6.988h-82.328c-3.86 0-6.988-3.128-6.988-6.988zm0 31.799c0-3.86 3.129-6.988 6.988-6.988h82.328c3.859 0 6.988 3.129 6.988 6.988s-3.129 6.988-6.988 6.988h-82.328c-3.86.001-6.988-3.128-6.988-6.988z"/></svg>